<mxfile host="app.diagrams.net" modified="2021-07-22T10:12:35.847Z" agent="5.0 (Windows NT 10.0; Win64; x64) AppleWebKit/537.36 (KHTML, like Gecko) Chrome/92.0.4515.107 Safari/537.36" etag="P1owr74BkVm_od4IEHsg" version="14.8.6" type="github">
  <diagram id="SE2YZJw3s4HJGcVilv3t" name="第 1 页">
    <mxGraphModel dx="1209" dy="628" grid="1" gridSize="10" guides="1" tooltips="1" connect="1" arrows="1" fold="1" page="1" pageScale="1" pageWidth="1100" pageHeight="1700" math="0" shadow="0">
      <root>
        <mxCell id="0" />
        <mxCell id="1" parent="0" />
        <mxCell id="A--l9Io_-B10xH9ZlKLp-4" style="edgeStyle=orthogonalEdgeStyle;rounded=0;orthogonalLoop=1;jettySize=auto;html=1;" edge="1" parent="1" source="A--l9Io_-B10xH9ZlKLp-3">
          <mxGeometry relative="1" as="geometry">
            <mxPoint x="520" y="340" as="targetPoint" />
          </mxGeometry>
        </mxCell>
        <mxCell id="A--l9Io_-B10xH9ZlKLp-3" value="拟稿" style="rounded=1;whiteSpace=wrap;html=1;" vertex="1" parent="1">
          <mxGeometry x="460" y="240" width="120" height="60" as="geometry" />
        </mxCell>
        <mxCell id="A--l9Io_-B10xH9ZlKLp-6" style="edgeStyle=orthogonalEdgeStyle;rounded=0;orthogonalLoop=1;jettySize=auto;html=1;entryX=1;entryY=0.5;entryDx=0;entryDy=0;" edge="1" parent="1" source="A--l9Io_-B10xH9ZlKLp-5" target="A--l9Io_-B10xH9ZlKLp-3">
          <mxGeometry relative="1" as="geometry">
            <Array as="points">
              <mxPoint x="650" y="370" />
              <mxPoint x="650" y="270" />
            </Array>
          </mxGeometry>
        </mxCell>
        <mxCell id="A--l9Io_-B10xH9ZlKLp-8" style="edgeStyle=orthogonalEdgeStyle;rounded=0;orthogonalLoop=1;jettySize=auto;html=1;" edge="1" parent="1" source="A--l9Io_-B10xH9ZlKLp-5">
          <mxGeometry relative="1" as="geometry">
            <mxPoint x="520" y="460" as="targetPoint" />
          </mxGeometry>
        </mxCell>
        <mxCell id="A--l9Io_-B10xH9ZlKLp-13" style="edgeStyle=orthogonalEdgeStyle;rounded=0;orthogonalLoop=1;jettySize=auto;html=1;exitX=0;exitY=0.5;exitDx=0;exitDy=0;entryX=1;entryY=0.5;entryDx=0;entryDy=0;" edge="1" parent="1" source="A--l9Io_-B10xH9ZlKLp-5" target="A--l9Io_-B10xH9ZlKLp-12">
          <mxGeometry relative="1" as="geometry" />
        </mxCell>
        <mxCell id="A--l9Io_-B10xH9ZlKLp-5" value="群组经理审批" style="rounded=1;whiteSpace=wrap;html=1;" vertex="1" parent="1">
          <mxGeometry x="460" y="340" width="120" height="60" as="geometry" />
        </mxCell>
        <mxCell id="A--l9Io_-B10xH9ZlKLp-7" value="不同意" style="text;html=1;align=center;verticalAlign=middle;resizable=0;points=[];autosize=1;strokeColor=none;" vertex="1" parent="1">
          <mxGeometry x="650" y="330" width="50" height="20" as="geometry" />
        </mxCell>
        <mxCell id="A--l9Io_-B10xH9ZlKLp-9" value="同意" style="text;html=1;align=center;verticalAlign=middle;resizable=0;points=[];autosize=1;strokeColor=none;" vertex="1" parent="1">
          <mxGeometry x="520" y="420" width="40" height="20" as="geometry" />
        </mxCell>
        <mxCell id="A--l9Io_-B10xH9ZlKLp-15" style="edgeStyle=orthogonalEdgeStyle;rounded=0;orthogonalLoop=1;jettySize=auto;html=1;entryX=0.5;entryY=0;entryDx=0;entryDy=0;" edge="1" parent="1" source="A--l9Io_-B10xH9ZlKLp-12" target="A--l9Io_-B10xH9ZlKLp-5">
          <mxGeometry relative="1" as="geometry">
            <mxPoint x="520" y="320" as="targetPoint" />
            <Array as="points">
              <mxPoint x="320" y="320" />
              <mxPoint x="520" y="320" />
            </Array>
          </mxGeometry>
        </mxCell>
        <mxCell id="A--l9Io_-B10xH9ZlKLp-12" value="领导审批" style="rounded=1;whiteSpace=wrap;html=1;" vertex="1" parent="1">
          <mxGeometry x="260" y="340" width="120" height="60" as="geometry" />
        </mxCell>
        <mxCell id="A--l9Io_-B10xH9ZlKLp-20" style="edgeStyle=orthogonalEdgeStyle;rounded=0;orthogonalLoop=1;jettySize=auto;html=1;entryX=0;entryY=0.5;entryDx=0;entryDy=0;" edge="1" parent="1" source="A--l9Io_-B10xH9ZlKLp-16" target="A--l9Io_-B10xH9ZlKLp-19">
          <mxGeometry relative="1" as="geometry" />
        </mxCell>
        <mxCell id="A--l9Io_-B10xH9ZlKLp-23" style="edgeStyle=orthogonalEdgeStyle;rounded=0;orthogonalLoop=1;jettySize=auto;html=1;exitX=0.5;exitY=1;exitDx=0;exitDy=0;entryX=0.5;entryY=0;entryDx=0;entryDy=0;" edge="1" parent="1" source="A--l9Io_-B10xH9ZlKLp-16" target="A--l9Io_-B10xH9ZlKLp-22">
          <mxGeometry relative="1" as="geometry" />
        </mxCell>
        <mxCell id="A--l9Io_-B10xH9ZlKLp-16" value="拟稿人分派" style="rounded=1;whiteSpace=wrap;html=1;" vertex="1" parent="1">
          <mxGeometry x="460" y="460" width="120" height="60" as="geometry" />
        </mxCell>
        <mxCell id="A--l9Io_-B10xH9ZlKLp-19" value="阅知" style="rounded=1;whiteSpace=wrap;html=1;" vertex="1" parent="1">
          <mxGeometry x="670" y="460" width="120" height="60" as="geometry" />
        </mxCell>
        <mxCell id="A--l9Io_-B10xH9ZlKLp-32" style="edgeStyle=orthogonalEdgeStyle;rounded=0;orthogonalLoop=1;jettySize=auto;html=1;exitX=0.5;exitY=1;exitDx=0;exitDy=0;entryX=0.5;entryY=0;entryDx=0;entryDy=0;" edge="1" parent="1" source="A--l9Io_-B10xH9ZlKLp-22" target="A--l9Io_-B10xH9ZlKLp-25">
          <mxGeometry relative="1" as="geometry" />
        </mxCell>
        <mxCell id="A--l9Io_-B10xH9ZlKLp-22" value="跟进人员确认" style="rounded=1;whiteSpace=wrap;html=1;" vertex="1" parent="1">
          <mxGeometry x="460" y="550" width="120" height="60" as="geometry" />
        </mxCell>
        <mxCell id="A--l9Io_-B10xH9ZlKLp-26" style="edgeStyle=orthogonalEdgeStyle;rounded=0;orthogonalLoop=1;jettySize=auto;html=1;exitX=0.5;exitY=1;exitDx=0;exitDy=0;" edge="1" parent="1" source="A--l9Io_-B10xH9ZlKLp-25">
          <mxGeometry relative="1" as="geometry">
            <mxPoint x="520" y="760" as="targetPoint" />
          </mxGeometry>
        </mxCell>
        <mxCell id="A--l9Io_-B10xH9ZlKLp-25" value="拟稿人关闭" style="rounded=1;whiteSpace=wrap;html=1;" vertex="1" parent="1">
          <mxGeometry x="460" y="640" width="120" height="60" as="geometry" />
        </mxCell>
        <mxCell id="A--l9Io_-B10xH9ZlKLp-27" value="" style="ellipse;html=1;shape=startState;fillColor=#000000;strokeColor=#ff0000;" vertex="1" parent="1">
          <mxGeometry x="505" y="170" width="30" height="30" as="geometry" />
        </mxCell>
        <mxCell id="A--l9Io_-B10xH9ZlKLp-28" value="" style="edgeStyle=orthogonalEdgeStyle;html=1;verticalAlign=bottom;endArrow=open;endSize=8;strokeColor=#ff0000;entryX=0.5;entryY=0;entryDx=0;entryDy=0;" edge="1" source="A--l9Io_-B10xH9ZlKLp-27" parent="1" target="A--l9Io_-B10xH9ZlKLp-3">
          <mxGeometry relative="1" as="geometry">
            <mxPoint x="155" y="475" as="targetPoint" />
          </mxGeometry>
        </mxCell>
        <mxCell id="A--l9Io_-B10xH9ZlKLp-29" value="" style="ellipse;html=1;shape=endState;fillColor=#000000;strokeColor=#ff0000;" vertex="1" parent="1">
          <mxGeometry x="505" y="730" width="30" height="30" as="geometry" />
        </mxCell>
      </root>
    </mxGraphModel>
  </diagram>
</mxfile>
